<svg id="Layer_1" data-name="Layer 1" xmlns="http://www.w3.org/2000/svg" viewBox="0 0 732 608"><defs><style>.cls-1{fill:#c7ede6;}.cls-2{fill:#fff;}.cls-3{fill:#fdfcef;}.cls-4{fill:#472b29;}.cls-5{fill:#6ee7ea;}.cls-6{fill:#58c5e2;}.cls-7{fill:#43a2db;}.cls-8{fill:#2d80d3;}.cls-9{fill:#bdc4d6;}.cls-10{fill:#7c8a9f;}</style></defs><title>Untitled-3</title><path class="cls-1" d="M1336.78,631.12a129,129,0,0,0,15.2-60.77c0-55.81-35.4-103.31-85.13-122,0-.05,0-.11,0-.18,0-97.76-80-177-178.74-177-83.28,0-153,56.49-172.9,132.82a128.57,128.57,0,0,0-39.89-6.38c-65.48,0-119.36,48.83-126.74,111.7-44.29,9.28-77.54,48.18-77.54,94.8,0,53.53,43.82,96.93,97.88,96.93,1.51,0,3-.1,4.48-.18,0,1.47-.22,2.92-.22,4.4,0,95.43,78.12,172.79,174.48,172.79a174.74,174.74,0,0,0,135.63-64.18A102.49,102.49,0,0,0,1247,789.34a93.9,93.9,0,0,0,28.37,4.37c51.71,0,93.63-41.51,93.63-92.72a92,92,0,0,0-32.22-69.87Zm0,0" transform="translate(-637 -270)"/><path class="cls-2" d="M725.57,583H641.26a4.22,4.22,0,1,1,0-8.43h84.31a4.22,4.22,0,1,1,0,8.43Zm0,0" transform="translate(-637 -270)"/><path class="cls-2" d="M751.91,583H743.4a4.22,4.22,0,1,1,0-8.43h8.51a4.22,4.22,0,1,1,0,8.43Zm0,0" transform="translate(-637 -270)"/><path class="cls-2" d="M794.39,599.85H717.86a4.22,4.22,0,1,1,0-8.43h76.53a4.22,4.22,0,1,1,0,8.43Zm0,0" transform="translate(-637 -270)"/><path class="cls-2" d="M700.84,599.85h-8.51a4.22,4.22,0,1,1,0-8.43h8.51a4.22,4.22,0,1,1,0,8.43Zm0,0" transform="translate(-637 -270)"/><path class="cls-2" d="M675.3,599.85h-17a4.22,4.22,0,1,1,0-8.43h17a4.22,4.22,0,1,1,0,8.43Zm0,0" transform="translate(-637 -270)"/><path class="cls-2" d="M726.37,616.71h-17a4.22,4.22,0,1,1,0-8.43h17a4.22,4.22,0,1,1,0,8.43Zm0,0" transform="translate(-637 -270)"/><path class="cls-2" d="M751.91,540.85H743.4a4.22,4.22,0,1,0,0,8.43h8.51a4.22,4.22,0,1,0,0-8.43Zm0,0" transform="translate(-637 -270)"/><path class="cls-2" d="M751.91,557.7H709.35a4.22,4.22,0,1,0,0,8.43h42.56a4.22,4.22,0,1,0,0-8.43Zm0,0" transform="translate(-637 -270)"/><path class="cls-2" d="M794.47,574.56H768.93a4.22,4.22,0,1,0,0,8.43h25.54a4.22,4.22,0,1,0,0-8.43Zm0,0" transform="translate(-637 -270)"/><path class="cls-2" d="M1015.77,321.7H930.65a4.22,4.22,0,1,1,0-8.43h85.12a4.22,4.22,0,1,1,0,8.43Zm0,0" transform="translate(-637 -270)"/><path class="cls-2" d="M1049.81,321.7h-17a4.22,4.22,0,1,1,0-8.43h17a4.22,4.22,0,1,1,0,8.43Zm0,0" transform="translate(-637 -270)"/><path class="cls-2" d="M1092.37,338.55h-85.11a4.21,4.21,0,1,1,0-8.42h85.11a4.21,4.21,0,1,1,0,8.42Zm0,0" transform="translate(-637 -270)"/><path class="cls-2" d="M990.23,338.55h-8.51a4.21,4.21,0,1,1,0-8.42h8.51a4.21,4.21,0,1,1,0,8.42Zm0,0" transform="translate(-637 -270)"/><path class="cls-2" d="M963.63,338.55h-16a4.21,4.21,0,1,1,0-8.42h16a4.21,4.21,0,1,1,0,8.42Zm0,0" transform="translate(-637 -270)"/><path class="cls-2" d="M1041.3,304.84H998.74a4.22,4.22,0,1,1,0-8.43h42.56a4.22,4.22,0,1,1,0,8.43Zm0,0" transform="translate(-637 -270)"/><path class="cls-2" d="M1015.77,355.41h-17a4.22,4.22,0,1,1,0-8.43h17a4.22,4.22,0,1,1,0,8.43Zm0,0" transform="translate(-637 -270)"/><path class="cls-3" d="M1293.83,797.93h30c17.9,0,32.4-14.11,32.4-31.52,0-15.19-11-27.85-25.74-30.85a31.78,31.78,0,0,0,.28-4c0-18-15-32.64-33.55-32.64a33.76,33.76,0,0,0-26.75,13c-1.57-20.07-20-35.56-41.55-33-15.77,1.87-28.81,13.72-31.71,28.91a35.61,35.61,0,0,0,.09,14,23.33,23.33,0,0,0-16.94-7.22,22.87,22.87,0,0,0-23.07,21,31.87,31.87,0,0,0-18,1.21c-12.2,4.45-20.88,15.62-21.39,28.29-.73,18,14,32.78,32.37,32.78H1225m13.93,0h3" transform="translate(-637 -270)"/><path class="cls-4" d="M1323.84,802.14h-30a4.22,4.22,0,1,1,0-8.43h30c15.53,0,28.17-12.25,28.17-27.3,0-12.85-9.4-24.08-22.36-26.72a4.21,4.21,0,0,1-3.35-4.67,27.1,27.1,0,0,0,.25-3.51c0-15.67-13.15-28.43-29.31-28.43a29.35,29.35,0,0,0-23.4,11.37,4.25,4.25,0,0,1-4.56,1.46,4.17,4.17,0,0,1-3-3.7,31.3,31.3,0,0,0-11.62-21.94,33.26,33.26,0,0,0-25.21-7.2c-14,1.66-25.5,12.16-28,25.53a31.55,31.55,0,0,0,.08,12.4,4.19,4.19,0,0,1-2.19,4.58,4.26,4.26,0,0,1-5-.83,19,19,0,0,0-13.87-5.9c-9.92,0-18.18,7.51-18.82,17.08a4.25,4.25,0,0,1-5.14,3.84,27.48,27.48,0,0,0-15.66,1c-10.7,3.91-18.18,13.76-18.6,24.5a26.7,26.7,0,0,0,7.59,19.76,28.32,28.32,0,0,0,20.56,8.64H1225a4.22,4.22,0,1,1,0,8.43h-74.69a37.23,37.23,0,0,1-26.66-11.22,35,35,0,0,1-10-25.95c.56-14.11,10.27-27,24.15-32.07a36,36,0,0,1,16-2.07,27.31,27.31,0,0,1,26.59-20.43,28,28,0,0,1,12,2.72,40,40,0,0,1,.71-6.12c3.22-16.93,17.77-30.21,35.35-32.31a41.79,41.79,0,0,1,31.61,9,39.84,39.84,0,0,1,13.1,19.4,38,38,0,0,1,24.11-8.48c20.85,0,37.79,16.53,37.79,36.85,0,.29,0,.58,0,.87,15,4.68,25.48,18.45,25.48,34,0,19.7-16.44,35.73-36.65,35.73Zm-81.89,0h-3a4.22,4.22,0,1,1,0-8.43h3a4.22,4.22,0,1,1,0,8.43Zm0,0" transform="translate(-637 -270)"/><path class="cls-4" d="M1309.37,753.23a2.31,2.31,0,0,1-.46-.05,2.11,2.11,0,0,1-1.61-2.52,17.5,17.5,0,0,1,1.44-4c5.11-10.31,19.28-14.1,31.55-8.48a2.11,2.11,0,0,1,1,2.8,2.14,2.14,0,0,1-2.81,1c-10.22-4.69-21.87-1.77-26,6.52a13.59,13.59,0,0,0-1.1,3.1,2.13,2.13,0,0,1-2.07,1.64Zm0,0" transform="translate(-637 -270)"/><path class="cls-4" d="M1265.62,802.14h-9.39a4.22,4.22,0,1,1,0-8.43h9.39a4.22,4.22,0,1,1,0,8.43Zm0,0" transform="translate(-637 -270)"/><path class="cls-5" d="M1241.37,431.27l0,303.44a17,17,0,0,1-17,16.86H798.8a16.94,16.94,0,0,1-17-16.86l0-303.44a16.94,16.94,0,0,1,17-16.86h425.58a17,17,0,0,1,17,16.86Zm0,0" transform="translate(-637 -270)"/><path class="cls-6" d="M1241.37,431.27v54.87C1220,596.31,1176.21,684.22,1091,751.57H798.8a16.94,16.94,0,0,1-17-16.86l0-303.44a16.94,16.94,0,0,1,17-16.86h425.58a17,17,0,0,1,17,16.86Zm0,0" transform="translate(-637 -270)"/><path class="cls-7" d="M1097.61,414.41c-4.26,159.65-136.23,270.74-298.3,270.74-5.86,0-11.74-.17-17.53-.51l0-253.37a16.94,16.94,0,0,1,17-16.86Zm0,0" transform="translate(-637 -270)"/><path class="cls-8" d="M927.2,414.41C923.12,480.84,867.45,525,799.27,525a132.89,132.89,0,0,1-17.53-1.18V431.27a16.94,16.94,0,0,1,17-16.86Zm0,0" transform="translate(-637 -270)"/><path class="cls-4" d="M1224.3,426.21a5.09,5.09,0,0,1,5.11,5.06l0,303.44a5.09,5.09,0,0,1-5.1,5.06H798.77a5.09,5.09,0,0,1-5.11-5.06l0-303.44a5.09,5.09,0,0,1,5.11-5.06H1224.3m0-11.8H798.72a16.94,16.94,0,0,0-17,16.86l0,303.44a16.94,16.94,0,0,0,17,16.86h425.58a16.94,16.94,0,0,0,17-16.86l0-303.44a16.94,16.94,0,0,0-17-16.86Zm0,0" transform="translate(-637 -270)"/><path class="cls-4" d="M1203,498.7a4.23,4.23,0,0,1-4.25-4.21V477.63a4.26,4.26,0,0,1,8.51,0v16.86a4.24,4.24,0,0,1-4.26,4.21Zm0,0" transform="translate(-637 -270)"/><path class="cls-4" d="M1203,557.7a4.23,4.23,0,0,1-4.25-4.21V519.77a4.26,4.26,0,0,1,8.51,0v33.72a4.23,4.23,0,0,1-4.26,4.21Zm0,0" transform="translate(-637 -270)"/><path class="cls-4" d="M1194.56,717.85H1135a4.22,4.22,0,1,1,0-8.43h59.59a4.23,4.23,0,0,0,4.25-4.21l0-118a4.26,4.26,0,0,1,8.51,0l0,118a12.72,12.72,0,0,1-12.76,12.64Zm0,0" transform="translate(-637 -270)"/><path class="cls-4" d="M1108.42,717.85H819a4.22,4.22,0,1,1,0-8.43h289.4a4.22,4.22,0,1,1,0,8.43Zm0,0" transform="translate(-637 -270)"/><path class="cls-2" d="M828.51,564.6c0-10.18,24-44.83,65-44.83,65.8,0,75.77,79.7,119.19,79.7,33.26,0,43-19.92,48.75-19.92,2.74,0,5.42,1.43,5.42,3.5,0,8.72-27.36,46.3-65,46.3-65,0-66-79.7-119.19-79.7-28.52,0-41.57,19.93-48.76,19.93-4.73,0-5.37-2.79-5.37-5Zm0,0" transform="translate(-637 -270)"/><path class="cls-4" d="M977.47,627a2.21,2.21,0,0,1-.8-.14c-19.26-7.7-31.23-23.65-42.79-39.07-13.9-18.52-27-36-51.24-36-18.3,0-30.14,8.62-38,14.33-4.46,3.25-7.68,5.59-10.79,5.59-4.83,0-7.51-2.51-7.51-7.08,0-11.31,24.54-46.93,67.1-46.93A71.31,71.31,0,0,1,937,532a2.1,2.1,0,0,1,.45,2.95,2.13,2.13,0,0,1-3,.45,67.15,67.15,0,0,0-41-13.46c-40,0-62.84,33.57-62.84,42.71,0,1.69.23,2.88,3.25,2.88,1.71,0,4.74-2.22,8.27-4.78,8.29-6,20.79-15.15,40.49-15.15,26.35,0,40.09,18.32,54.65,37.72,11.22,15,22.83,30.43,41,37.68a2.09,2.09,0,0,1-.79,4Zm0,0" transform="translate(-637 -270)"/><path class="cls-4" d="M1013.21,630.31a2.1,2.1,0,0,1-.42-4.17c31.19-6.26,51.92-36.77,51.92-43.09,0-.48-1.39-1.4-3.29-1.4-.91,0-3.12,1.85-5.25,3.66-7.2,6.08-19.26,16.27-43.51,16.27-20.48,0-33.82-16.75-47.92-34.48-5.17-6.5-10.52-13.22-16.43-19.42a2.08,2.08,0,0,1,.09-3,2.15,2.15,0,0,1,3,.08c6,6.33,11.45,13.13,16.67,19.7,14,17.64,26.16,32.87,44.58,32.87,22.69,0,34-9.55,40.75-15.27,3.33-2.8,5.52-4.65,8-4.65,3.71,0,7.55,2.1,7.55,5.61,0,8.73-23,40.73-55.33,47.23a3.11,3.11,0,0,1-.43,0Zm0,0" transform="translate(-637 -270)"/><path class="cls-4" d="M1001.83,631.46a72.75,72.75,0,0,1-12.82-1.1,2.11,2.11,0,1,1,.74-4.15,69.31,69.31,0,0,0,12.08,1,2.12,2.12,0,1,1,0,4.23Zm0,0" transform="translate(-637 -270)"/><path class="cls-9" d="M1066.84,578.78l4.25-63.22,51.07,33.72Zm0,0" transform="translate(-637 -270)"/><path class="cls-10" d="M1071.09,515.56,1175.23,353.8a8.57,8.57,0,0,1,11.45-2.76l38.46,22.09A8.39,8.39,0,0,1,1228,385L1122.16,549.28Zm0,0" transform="translate(-637 -270)"/><path class="cls-4" d="M1066.84,583a4.29,4.29,0,0,1-2.31-.68,4.22,4.22,0,0,1-2-3.82l4.26-63.22a4.19,4.19,0,0,1,2.36-3.49,4.28,4.28,0,0,1,4.24.26l51.07,33.72a4.2,4.2,0,0,1-.34,7.22l-55.32,29.5a4.2,4.2,0,0,1-2,.51Zm8-59.89-3.26,48.35,42.32-22.55Zm0,0" transform="translate(-637 -270)"/><path class="cls-4" d="M1122.16,553.49a4.23,4.23,0,0,1-3.59-6.48l105.87-164.33a4.19,4.19,0,0,0-1.45-5.91l-38.46-22.09a4.26,4.26,0,0,0-5.72,1.38L1074.68,517.83a4.28,4.28,0,0,1-5.87,1.29,4.19,4.19,0,0,1-1.3-5.82l104.13-161.76a12.83,12.83,0,0,1,17.18-4.15l38.46,22.09a12.55,12.55,0,0,1,6,8,12.37,12.37,0,0,1-1.65,9.78L1125.75,551.54a4.25,4.25,0,0,1-3.59,2Zm0,0" transform="translate(-637 -270)"/><path class="cls-3" d="M840,823.27H940.11a41.17,41.17,0,0,0,8.54-81.53,40.29,40.29,0,0,0,.37-5.29,43.14,43.14,0,0,0-77.46-25.68,47.4,47.4,0,0,0-53.36-43.12c-20.26,2.45-37,18-40.72,37.81a47.12,47.12,0,0,0,.12,18.35,29.75,29.75,0,0,0-51.39,18.06,40.26,40.26,0,0,0-23.13,1.58c-15.66,5.83-26.81,20.42-27.46,37a41.39,41.39,0,0,0,41.58,42.86h95.92" transform="translate(-637 -270)"/><path class="cls-4" d="M940.11,827.48H840a4.21,4.21,0,1,1,0-8.42H940.12a37,37,0,0,0,7.68-73.2,4.22,4.22,0,0,1-3.35-4.64,39.52,39.52,0,0,0,.33-4.77A38.88,38.88,0,0,0,875,713.31a4.26,4.26,0,0,1-7.63-2.22,42.89,42.89,0,0,0-15.74-29.91A43.11,43.11,0,0,0,781.79,723a4.2,4.2,0,0,1-2.23,4.58,4.28,4.28,0,0,1-5.06-.87,25.47,25.47,0,0,0-44,15.46,4.18,4.18,0,0,1-1.69,3.09,4.34,4.34,0,0,1-3.47.74,35.84,35.84,0,0,0-20.72,1.41c-14.2,5.28-24.13,18.62-24.7,33.19a36.46,36.46,0,0,0,10.4,27.12,37.17,37.17,0,0,0,26.92,11.36h95.93a4.22,4.22,0,1,1,0,8.43H717.23a45.74,45.74,0,0,1-33.06-13.93,44.83,44.83,0,0,1-12.77-33.31c.71-17.92,12.86-34.3,30.23-40.76a44.41,44.41,0,0,1,21-2.51,34,34,0,0,1,49.78-22.52,52,52,0,0,1,.91-9.77c4-21.6,22.29-38.55,44.38-41.23a51.74,51.74,0,0,1,56.64,38.11,47.06,47.06,0,0,1,31.6-12c26.11,0,47.35,21,47.35,46.89q0,1-.06,2.1A45.69,45.69,0,0,1,986,782.07c0,25-20.58,45.41-45.87,45.41Zm0,0" transform="translate(-637 -270)"/><path class="cls-3" d="M815.88,732.5c-15.39-1-28.64,9.53-29.58,23.51a22.28,22.28,0,0,0,.21,5.11,18.15,18.15,0,0,0-12.41-5.9c-9.24-.6-17.21,5.43-18.37,13.65a27.16,27.16,0,0,0-5.25-.88c-13.46-.87-25.05,8.34-25.89,20.58" transform="translate(-637 -270)"/><path class="cls-4" d="M724.6,790.68h-.14a2.11,2.11,0,0,1-2-2.24c.9-13.37,13.31-23.46,28.16-22.54a27.9,27.9,0,0,1,3.47.44c2.32-8.15,10.68-13.81,20.13-13.21a20.53,20.53,0,0,1,9.9,3.22c0-.16,0-.31,0-.47,1-15.12,15.32-26.51,31.84-25.47a2.11,2.11,0,0,1,2,2.25,2,2,0,0,1-2.26,2c-14.11-.88-26.45,8.75-27.33,21.55a21.67,21.67,0,0,0,.2,4.64,2.11,2.11,0,0,1-1.2,2.24,2.15,2.15,0,0,1-2.5-.52,16.2,16.2,0,0,0-11-5.19c-8.16-.54-15.1,4.68-16.11,11.85a2.18,2.18,0,0,1-.94,1.46,2.11,2.11,0,0,1-1.73.28,24.65,24.65,0,0,0-4.82-.81c-12.36-.83-22.87,7.55-23.63,18.61a2.12,2.12,0,0,1-2.12,2Zm0,0" transform="translate(-637 -270)"/><path class="cls-3" d="M957,746.57c-14.46-6.75-31.19-2-37.36,10.68a22.89,22.89,0,0,0-1.71,4.84" transform="translate(-637 -270)"/><path class="cls-4" d="M917.89,764.18a2.85,2.85,0,0,1-.49,0,2.13,2.13,0,0,1-1.59-2.53,24.83,24.83,0,0,1,1.87-5.27c6.66-13.68,24.68-18.91,40.18-11.67a2.11,2.11,0,0,1,1,2.81,2.17,2.17,0,0,1-2.84,1c-13.41-6.26-28.89-1.91-34.53,9.68a21.15,21.15,0,0,0-1.57,4.4,2.09,2.09,0,0,1-2.06,1.61Zm0,0" transform="translate(-637 -270)"/><path class="cls-4" d="M965.55,744.46a1.28,1.28,0,0,0,.68-.2,1.27,1.27,0,0,0,.4-1.75l-16.7-26.18a1.29,1.29,0,0,0-1.76-.39,1.26,1.26,0,0,0-.4,1.75l16.7,26.17a1.26,1.26,0,0,0,1.08.6Zm0,0" transform="translate(-637 -270)"/><path class="cls-4" d="M974.06,744.46a1.28,1.28,0,0,0,.68-.2,1.27,1.27,0,0,0,.4-1.75l-16.7-26.18a1.29,1.29,0,0,0-1.76-.39,1.26,1.26,0,0,0-.4,1.75L973,743.86a1.26,1.26,0,0,0,1.08.6Zm0,0" transform="translate(-637 -270)"/><path class="cls-4" d="M982.57,744.46a1.34,1.34,0,0,0,.69-.2,1.26,1.26,0,0,0,.39-1.75L967,716.33a1.29,1.29,0,0,0-1.76-.39,1.27,1.27,0,0,0-.4,1.75l16.7,26.17a1.27,1.27,0,0,0,1.08.6Zm0,0" transform="translate(-637 -270)"/><path class="cls-4" d="M991.08,744.46a1.34,1.34,0,0,0,.69-.2,1.28,1.28,0,0,0,.4-1.75l-16.7-26.18a1.3,1.3,0,0,0-1.77-.39,1.27,1.27,0,0,0-.4,1.75L990,743.86a1.27,1.27,0,0,0,1.08.6Zm0,0" transform="translate(-637 -270)"/><path class="cls-4" d="M999.6,744.46a1.31,1.31,0,0,0,.68-.2,1.28,1.28,0,0,0,.4-1.75L984,716.33a1.3,1.3,0,0,0-1.77-.39,1.27,1.27,0,0,0-.4,1.75l16.7,26.17a1.27,1.27,0,0,0,1.09.6Zm0,0" transform="translate(-637 -270)"/><path class="cls-4" d="M1008.11,744.46a1.28,1.28,0,0,0,1.08-2l-16.7-26.18a1.29,1.29,0,0,0-1.76-.39,1.26,1.26,0,0,0-.4,1.75l16.7,26.17a1.24,1.24,0,0,0,1.08.6Zm0,0" transform="translate(-637 -270)"/><path class="cls-4" d="M1016.62,744.46a1.28,1.28,0,0,0,.68-.2,1.27,1.27,0,0,0,.4-1.75l-11-17.3a1.29,1.29,0,0,0-1.76-.4,1.26,1.26,0,0,0-.4,1.75l11,17.3a1.26,1.26,0,0,0,1.08.6Zm0,0" transform="translate(-637 -270)"/><path class="cls-4" d="M1025.13,744.46a1.28,1.28,0,0,0,.68-.2,1.27,1.27,0,0,0,.4-1.75l-6.92-10.86a1.28,1.28,0,0,0-1.76-.39,1.25,1.25,0,0,0-.4,1.74l6.92,10.86a1.26,1.26,0,0,0,1.08.6Zm0,0" transform="translate(-637 -270)"/><path class="cls-1" d="M1336.78,630a129,129,0,0,0,15.2-60.77c0-55.8-35.4-103.31-85.13-122,0-.06,0-.12,0-.18,0-97.76-80-177-178.74-177-83.28,0-153,56.48-172.9,132.81a128.57,128.57,0,0,0-39.89-6.38c-65.48,0-119.36,48.83-126.74,111.7-44.29,9.28-77.54,48.19-77.54,94.81,0,53.53,43.82,96.93,97.88,96.93,1.51,0,3-.1,4.48-.18,0,1.47-.22,2.91-.22,4.39,0,95.44,78.12,172.8,174.48,172.8A174.74,174.74,0,0,0,1083.3,812.7,102.49,102.49,0,0,0,1247,788.22a93.9,93.9,0,0,0,28.37,4.37c51.71,0,93.63-41.51,93.63-92.72A92.06,92.06,0,0,0,1336.78,630Zm0,0" transform="translate(-637 -270)"/><path class="cls-2" d="M725.57,581.87H641.26a4.22,4.22,0,1,1,0-8.43h84.31a4.22,4.22,0,1,1,0,8.43Zm0,0" transform="translate(-637 -270)"/><path class="cls-2" d="M751.91,581.87H743.4a4.22,4.22,0,1,1,0-8.43h8.51a4.22,4.22,0,1,1,0,8.43Zm0,0" transform="translate(-637 -270)"/><path class="cls-2" d="M794.39,598.72H717.86a4.21,4.21,0,1,1,0-8.42h76.53a4.21,4.21,0,1,1,0,8.42Zm0,0" transform="translate(-637 -270)"/><path class="cls-2" d="M726.37,615.58h-17a4.22,4.22,0,1,1,0-8.43h17a4.22,4.22,0,1,1,0,8.43Zm0,0" transform="translate(-637 -270)"/><path class="cls-2" d="M751.91,539.72H743.4a4.22,4.22,0,1,0,0,8.43h8.51a4.22,4.22,0,1,0,0-8.43Zm0,0" transform="translate(-637 -270)"/><path class="cls-2" d="M751.91,556.58H709.35a4.22,4.22,0,1,0,0,8.43h42.56a4.22,4.22,0,1,0,0-8.43Zm0,0" transform="translate(-637 -270)"/><path class="cls-2" d="M794.47,573.44H768.93a4.22,4.22,0,1,0,0,8.43h25.54a4.22,4.22,0,1,0,0-8.43Zm0,0" transform="translate(-637 -270)"/><path class="cls-2" d="M1015.77,320.57H930.65a4.22,4.22,0,1,1,0-8.43h85.12a4.22,4.22,0,1,1,0,8.43Zm0,0" transform="translate(-637 -270)"/><path class="cls-2" d="M1049.81,320.57h-17a4.22,4.22,0,1,1,0-8.43h17a4.22,4.22,0,1,1,0,8.43Zm0,0" transform="translate(-637 -270)"/><path class="cls-2" d="M1092.37,337.43h-85.11a4.22,4.22,0,1,1,0-8.43h85.11a4.22,4.22,0,1,1,0,8.43Zm0,0" transform="translate(-637 -270)"/><path class="cls-2" d="M990.23,337.43h-8.51a4.22,4.22,0,1,1,0-8.43h8.51a4.22,4.22,0,1,1,0,8.43Zm0,0" transform="translate(-637 -270)"/><path class="cls-2" d="M963.63,337.43h-16a4.22,4.22,0,1,1,0-8.43h16a4.22,4.22,0,1,1,0,8.43Zm0,0" transform="translate(-637 -270)"/><path class="cls-2" d="M1041.3,303.72H998.74a4.22,4.22,0,1,1,0-8.43h42.56a4.22,4.22,0,1,1,0,8.43Zm0,0" transform="translate(-637 -270)"/><path class="cls-2" d="M1015.77,354.29h-17a4.22,4.22,0,1,1,0-8.43h17a4.22,4.22,0,1,1,0,8.43Zm0,0" transform="translate(-637 -270)"/><path class="cls-3" d="M1293.83,796.8h30c17.9,0,32.4-14.11,32.4-31.51,0-15.19-11-27.86-25.74-30.85a31.91,31.91,0,0,0,.28-4.05c0-18-15-32.64-33.55-32.64a33.75,33.75,0,0,0-26.75,13c-1.57-20.07-20-35.55-41.55-33-15.77,1.88-28.81,13.73-31.71,28.92a35.56,35.56,0,0,0,.09,14,23.36,23.36,0,0,0-16.94-7.21,22.86,22.86,0,0,0-23.07,21,31.87,31.87,0,0,0-18,1.21c-12.2,4.44-20.88,15.61-21.39,28.28-.73,18,14,32.78,32.37,32.78H1225m13.93,0h3" transform="translate(-637 -270)"/><path class="cls-4" d="M1323.84,801h-30a4.22,4.22,0,1,1,0-8.43h30c15.53,0,28.17-12.25,28.17-27.3,0-12.85-9.4-24.08-22.36-26.72a4.21,4.21,0,0,1-3.35-4.67,27.23,27.23,0,0,0,.25-3.51c0-15.68-13.15-28.43-29.31-28.43a29.37,29.37,0,0,0-23.4,11.36,4.25,4.25,0,0,1-4.56,1.47,4.18,4.18,0,0,1-3-3.71,31.3,31.3,0,0,0-11.62-21.94,33.3,33.3,0,0,0-25.21-7.19c-14,1.66-25.5,12.16-28,25.52a31.55,31.55,0,0,0,.08,12.4,4.19,4.19,0,0,1-2.19,4.59,4.28,4.28,0,0,1-5-.83,19,19,0,0,0-13.87-5.9c-9.92,0-18.18,7.5-18.82,17.08a4.25,4.25,0,0,1-5.14,3.83,27.56,27.56,0,0,0-15.66,1.05c-10.7,3.91-18.18,13.76-18.6,24.49a26.71,26.71,0,0,0,7.59,19.77,28.32,28.32,0,0,0,20.56,8.64H1225a4.22,4.22,0,1,1,0,8.43h-74.69a37.2,37.2,0,0,1-26.66-11.23,35,35,0,0,1-10-25.94c.56-14.11,10.27-27,24.15-32.08a36.16,36.16,0,0,1,16-2.06,27.31,27.31,0,0,1,26.59-20.43,27.81,27.81,0,0,1,12,2.72,39.86,39.86,0,0,1,.71-6.12c3.22-16.93,17.77-30.22,35.35-32.31a41.75,41.75,0,0,1,31.61,9,39.81,39.81,0,0,1,13.1,19.39,38,38,0,0,1,24.11-8.48c20.85,0,37.79,16.53,37.79,36.86,0,.29,0,.58,0,.87,15,4.68,25.48,18.44,25.48,34,0,19.69-16.44,35.73-36.65,35.73ZM1242,801h-3a4.22,4.22,0,1,1,0-8.43h3a4.22,4.22,0,1,1,0,8.43Zm0,0" transform="translate(-637 -270)"/><path class="cls-4" d="M1309.37,752.1a2.32,2.32,0,0,1-.46,0,2.12,2.12,0,0,1-1.61-2.53,17.59,17.59,0,0,1,1.44-4c5.11-10.31,19.28-14.1,31.55-8.49a2.11,2.11,0,1,1-1.77,3.83c-10.22-4.68-21.87-1.77-26,6.53a13.51,13.51,0,0,0-1.1,3.09,2.12,2.12,0,0,1-2.07,1.64Zm0,0" transform="translate(-637 -270)"/><path class="cls-4" d="M1265.62,801h-9.39a4.22,4.22,0,1,1,0-8.43h9.39a4.22,4.22,0,1,1,0,8.43Zm0,0" transform="translate(-637 -270)"/><path class="cls-5" d="M1241.37,430.15l0,303.44a17,17,0,0,1-17,16.85H798.8a16.93,16.93,0,0,1-17-16.85l0-303.44a16.94,16.94,0,0,1,17-16.86h425.58a17,17,0,0,1,17,16.86Zm0,0" transform="translate(-637 -270)"/><path class="cls-6" d="M1241.37,430.15V485C1220,595.19,1176.21,683.1,1091,750.44H798.8a16.93,16.93,0,0,1-17-16.85l0-303.44a16.94,16.94,0,0,1,17-16.86h425.58a17,17,0,0,1,17,16.86Zm0,0" transform="translate(-637 -270)"/><path class="cls-7" d="M1097.61,413.29C1093.35,572.93,961.38,684,799.31,684c-5.86,0-11.74-.16-17.53-.5l0-253.37a16.94,16.94,0,0,1,17-16.86Zm0,0" transform="translate(-637 -270)"/><path class="cls-8" d="M927.2,413.29c-4.08,66.42-59.75,110.58-127.93,110.58a134.63,134.63,0,0,1-17.53-1.17V430.15a16.94,16.94,0,0,1,17-16.86Zm0,0" transform="translate(-637 -270)"/><path class="cls-4" d="M1224.3,425.09a5.09,5.09,0,0,1,5.11,5.06l0,303.44a5.08,5.08,0,0,1-5.1,5H798.77a5.08,5.08,0,0,1-5.11-5l0-303.44a5.09,5.09,0,0,1,5.11-5.06H1224.3m0-11.8H798.72a16.93,16.93,0,0,0-17,16.86l0,303.44a16.94,16.94,0,0,0,17,16.85h425.58a16.93,16.93,0,0,0,17-16.85l0-303.44a16.94,16.94,0,0,0-17-16.86Zm0,0" transform="translate(-637 -270)"/><path class="cls-4" d="M1203,497.58a4.23,4.23,0,0,1-4.25-4.22V476.51a4.26,4.26,0,0,1,8.51,0v16.85a4.24,4.24,0,0,1-4.26,4.22Zm0,0" transform="translate(-637 -270)"/><path class="cls-4" d="M1203,556.58a4.23,4.23,0,0,1-4.25-4.21V518.65a4.26,4.26,0,0,1,8.51,0v33.72a4.24,4.24,0,0,1-4.26,4.21Zm0,0" transform="translate(-637 -270)"/><path class="cls-4" d="M1194.56,716.73H1135a4.22,4.22,0,1,1,0-8.43h59.59a4.24,4.24,0,0,0,4.25-4.22l0-118a4.26,4.26,0,0,1,8.51,0l0,118a12.72,12.72,0,0,1-12.76,12.65Zm0,0" transform="translate(-637 -270)"/><path class="cls-4" d="M1108.42,716.73H819a4.22,4.22,0,1,1,0-8.43h289.4a4.22,4.22,0,1,1,0,8.43Zm0,0" transform="translate(-637 -270)"/><path class="cls-2" d="M828.51,563.48c0-10.19,24-44.83,65-44.83,65.8,0,75.77,79.7,119.19,79.7,33.26,0,43-19.93,48.75-19.93,2.74,0,5.42,1.44,5.42,3.5,0,8.72-27.36,46.31-65,46.31-65,0-66-79.7-119.19-79.7-28.52,0-41.57,19.92-48.76,19.92-4.73,0-5.37-2.78-5.37-5Zm0,0" transform="translate(-637 -270)"/><path class="cls-4" d="M977.47,625.88a2.22,2.22,0,0,1-.8-.15c-19.26-7.69-31.23-23.64-42.79-39.07-13.9-18.52-27-36-51.24-36-18.3,0-30.14,8.62-38,14.32-4.46,3.26-7.68,5.6-10.79,5.6-4.83,0-7.51-2.52-7.51-7.09,0-11.31,24.54-46.93,67.1-46.93A71.26,71.26,0,0,1,937,530.84a2.1,2.1,0,0,1,.45,2.95,2.13,2.13,0,0,1-3,.44,67.14,67.14,0,0,0-41-13.45c-40,0-62.84,33.57-62.84,42.71,0,1.69.23,2.88,3.25,2.88,1.71,0,4.74-2.22,8.27-4.79,8.29-6,20.79-15.14,40.49-15.14,26.35,0,40.09,18.31,54.65,37.72,11.22,15,22.83,30.43,41,37.68a2.09,2.09,0,0,1-.79,4Zm0,0" transform="translate(-637 -270)"/><path class="cls-4" d="M1013.21,629.19a2.11,2.11,0,0,1-.42-4.18c31.19-6.26,51.92-36.76,51.92-43.09,0-.47-1.39-1.39-3.29-1.39-.91,0-3.12,1.85-5.25,3.65-7.2,6.09-19.26,16.27-43.51,16.27-20.48,0-33.82-16.74-47.92-34.47-5.17-6.5-10.52-13.23-16.43-19.42a2.1,2.1,0,0,1,.09-3,2.15,2.15,0,0,1,3,.09c6,6.33,11.45,13.12,16.67,19.7,14,17.64,26.16,32.87,44.58,32.87,22.69,0,34-9.55,40.75-15.27,3.33-2.8,5.52-4.66,8-4.66,3.71,0,7.55,2.1,7.55,5.61,0,8.74-23,40.73-55.33,47.23a2.09,2.09,0,0,1-.43,0Zm0,0" transform="translate(-637 -270)"/><path class="cls-4" d="M1001.83,630.33a72.75,72.75,0,0,1-12.82-1.1,2.11,2.11,0,1,1,.74-4.15,69.3,69.3,0,0,0,12.08,1,2.11,2.11,0,1,1,0,4.22Zm0,0" transform="translate(-637 -270)"/><path class="cls-9" d="M1066.84,577.65l4.25-63.21,51.07,33.71Zm0,0" transform="translate(-637 -270)"/><path class="cls-10" d="M1071.09,514.44l104.14-161.76a8.57,8.57,0,0,1,11.45-2.76L1225.14,372a8.38,8.38,0,0,1,2.9,11.82L1122.16,548.15Zm0,0" transform="translate(-637 -270)"/><path class="cls-4" d="M1066.84,581.87a4.29,4.29,0,0,1-2.31-.68,4.22,4.22,0,0,1-2-3.82l4.26-63.22a4.22,4.22,0,0,1,2.36-3.5,4.29,4.29,0,0,1,4.24.27l51.07,33.72a4.19,4.19,0,0,1-.34,7.21l-55.32,29.5a4.1,4.1,0,0,1-2,.52Zm8-59.89-3.26,48.35,42.32-22.56Zm0,0" transform="translate(-637 -270)"/><path class="cls-4" d="M1122.16,552.37a4.26,4.26,0,0,1-2.29-.67,4.18,4.18,0,0,1-1.3-5.81l105.87-164.33a4.18,4.18,0,0,0-1.45-5.91l-38.46-22.09a4.25,4.25,0,0,0-5.72,1.38L1074.68,516.7a4.26,4.26,0,0,1-5.87,1.29,4.18,4.18,0,0,1-1.3-5.81l104.13-161.77a12.84,12.84,0,0,1,17.18-4.15l38.46,22.09a12.58,12.58,0,0,1,6,8,12.39,12.39,0,0,1-1.65,9.79L1125.75,550.42a4.25,4.25,0,0,1-3.59,2Zm0,0" transform="translate(-637 -270)"/><path class="cls-3" d="M840,822.15H940.11a41.17,41.17,0,0,0,8.54-81.54,40,40,0,0,0,.37-5.29,43.14,43.14,0,0,0-77.46-25.67,47.41,47.41,0,0,0-53.36-43.13c-20.26,2.46-37,18-40.72,37.82a47.12,47.12,0,0,0,.12,18.35,29.75,29.75,0,0,0-51.39,18,40.18,40.18,0,0,0-23.13,1.59c-15.66,5.82-26.81,20.42-27.46,37a41.39,41.39,0,0,0,41.58,42.86h95.92" transform="translate(-637 -270)"/><path class="cls-4" d="M940.11,826.36H840a4.22,4.22,0,1,1,0-8.43H940.12a37,37,0,0,0,7.68-73.19,4.22,4.22,0,0,1-3.35-4.64,39.69,39.69,0,0,0,.33-4.78A38.88,38.88,0,0,0,875,712.18a4.27,4.27,0,0,1-4.58,1.51,4.22,4.22,0,0,1-3-3.72,42.93,42.93,0,0,0-15.74-29.92,43.11,43.11,0,0,0-69.81,41.79,4.21,4.21,0,0,1-2.23,4.59,4.28,4.28,0,0,1-5.06-.88,25.47,25.47,0,0,0-44,15.46,4.18,4.18,0,0,1-1.69,3.09,4.31,4.31,0,0,1-3.47.75,35.76,35.76,0,0,0-20.72,1.41c-14.2,5.27-24.13,18.61-24.7,33.19a36.46,36.46,0,0,0,10.4,27.12,37.17,37.17,0,0,0,26.92,11.36h95.93a4.22,4.22,0,1,1,0,8.43H717.23a45.75,45.75,0,0,1-33.06-13.94,44.79,44.79,0,0,1-12.77-33.3c.71-17.92,12.86-34.3,30.23-40.76a44.41,44.41,0,0,1,21-2.51,34,34,0,0,1,49.78-22.53,52.18,52.18,0,0,1,.91-9.77c4-21.59,22.29-38.54,44.38-41.22a51.72,51.72,0,0,1,56.64,38.11,47.06,47.06,0,0,1,31.6-12c26.11,0,47.35,21,47.35,46.89,0,.69,0,1.39-.06,2.09A45.7,45.7,0,0,1,986,781c0,25-20.58,45.41-45.87,45.41Zm0,0" transform="translate(-637 -270)"/><path class="cls-3" d="M815.88,731.38c-15.39-1-28.64,9.52-29.58,23.51a22.2,22.2,0,0,0,.21,5.1,18.19,18.19,0,0,0-12.41-5.9c-9.24-.6-17.21,5.44-18.37,13.66a26.41,26.41,0,0,0-5.25-.88c-13.46-.88-25.05,8.34-25.89,20.58" transform="translate(-637 -270)"/><path class="cls-4" d="M724.6,789.55h-.14a2.1,2.1,0,0,1-2-2.24c.9-13.37,13.31-23.45,28.16-22.54a30,30,0,0,1,3.47.45c2.32-8.15,10.68-13.82,20.13-13.22a20.74,20.74,0,0,1,9.9,3.22c0-.16,0-.31,0-.46,1-15.12,15.32-26.52,31.84-25.47a2.1,2.1,0,0,1,2,2.24,2,2,0,0,1-2.26,2c-14.11-.87-26.45,8.75-27.33,21.56a21.7,21.7,0,0,0,.2,4.64,2.1,2.1,0,0,1-1.2,2.23,2.15,2.15,0,0,1-2.5-.51,16.16,16.16,0,0,0-11-5.19c-8.16-.54-15.1,4.68-16.11,11.84a2.18,2.18,0,0,1-.94,1.47,2.11,2.11,0,0,1-1.73.28,23.93,23.93,0,0,0-4.82-.81c-12.36-.84-22.87,7.55-23.63,18.61a2.12,2.12,0,0,1-2.12,1.95Zm0,0" transform="translate(-637 -270)"/><path class="cls-3" d="M957,745.44c-14.46-6.74-31.19-2-37.36,10.68a23.09,23.09,0,0,0-1.71,4.84" transform="translate(-637 -270)"/><path class="cls-4" d="M917.89,763.06a2.91,2.91,0,0,1-.49,0,2.12,2.12,0,0,1-1.59-2.53,24.75,24.75,0,0,1,1.87-5.26c6.66-13.68,24.68-18.91,40.18-11.67a2.1,2.1,0,0,1,1,2.81,2.17,2.17,0,0,1-2.84,1c-13.41-6.26-28.89-1.91-34.53,9.68a21.06,21.06,0,0,0-1.57,4.39,2.1,2.1,0,0,1-2.06,1.62Zm0,0" transform="translate(-637 -270)"/><path class="cls-4" d="M965.55,743.33a1.2,1.2,0,0,0,.68-.2,1.25,1.25,0,0,0,.4-1.74l-16.7-26.18a1.3,1.3,0,0,0-1.76-.4,1.27,1.27,0,0,0-.4,1.75l16.7,26.18a1.25,1.25,0,0,0,1.08.59Zm0,0" transform="translate(-637 -270)"/><path class="cls-4" d="M974.06,743.33a1.2,1.2,0,0,0,.68-.2,1.25,1.25,0,0,0,.4-1.74l-16.7-26.18a1.3,1.3,0,0,0-1.76-.4,1.27,1.27,0,0,0-.4,1.75L973,742.74a1.25,1.25,0,0,0,1.08.59Zm0,0" transform="translate(-637 -270)"/><path class="cls-4" d="M982.57,743.33a1.27,1.27,0,0,0,1.08-1.94L967,715.21a1.3,1.3,0,0,0-1.76-.4,1.28,1.28,0,0,0-.4,1.75l16.7,26.18a1.26,1.26,0,0,0,1.08.59Zm0,0" transform="translate(-637 -270)"/><path class="cls-4" d="M991.08,743.33a1.27,1.27,0,0,0,1.09-1.94l-16.7-26.18a1.31,1.31,0,0,0-1.77-.4,1.28,1.28,0,0,0-.4,1.75L990,742.74a1.26,1.26,0,0,0,1.08.59Zm0,0" transform="translate(-637 -270)"/><path class="cls-4" d="M999.6,743.33a1.22,1.22,0,0,0,.68-.2,1.26,1.26,0,0,0,.4-1.74L984,715.21a1.31,1.31,0,0,0-1.77-.4,1.28,1.28,0,0,0-.4,1.75l16.7,26.18a1.26,1.26,0,0,0,1.09.59Zm0,0" transform="translate(-637 -270)"/><path class="cls-4" d="M1008.11,743.33a1.2,1.2,0,0,0,.68-.2,1.26,1.26,0,0,0,.4-1.74l-16.7-26.18a1.3,1.3,0,0,0-1.76-.4,1.26,1.26,0,0,0-.4,1.75l16.7,26.18a1.23,1.23,0,0,0,1.08.59Zm0,0" transform="translate(-637 -270)"/><path class="cls-4" d="M1016.62,743.33a1.2,1.2,0,0,0,.68-.2,1.25,1.25,0,0,0,.4-1.74l-11-17.3a1.29,1.29,0,0,0-1.76-.4,1.25,1.25,0,0,0-.4,1.74l11,17.31a1.25,1.25,0,0,0,1.08.59Zm0,0" transform="translate(-637 -270)"/><path class="cls-4" d="M1025.13,743.33a1.2,1.2,0,0,0,.68-.2,1.25,1.25,0,0,0,.4-1.74l-6.92-10.86a1.29,1.29,0,0,0-1.76-.4,1.26,1.26,0,0,0-.4,1.74l6.92,10.87a1.25,1.25,0,0,0,1.08.59Zm0,0" transform="translate(-637 -270)"/></svg>